<?xml version="1.0" encoding="UTF-8" standalone="no"?>
<svg
   xmlns:dc="http://purl.org/dc/elements/1.1/"
   xmlns:cc="http://creativecommons.org/ns#"
   xmlns:rdf="http://www.w3.org/1999/02/22-rdf-syntax-ns#"
   xmlns:svg="http://www.w3.org/2000/svg"
   xmlns="http://www.w3.org/2000/svg"
   id="svg2690"
   version="1.1"
   viewBox="0 0 15.999883 16.000237"
   height="16.000237mm"
   width="15.999883mm">
  <defs
     id="defs2684">
    <clipPath
       clipPathUnits="userSpaceOnUse"
       id="clipPath4267-0">
      <path
         d="m 482.835,614.411 h 98.645 v 71.433 h -98.645 z"
         id="path4265-7" />
    </clipPath>
  </defs>
  <metadata
     id="metadata2687">
    <rdf:RDF>
      <cc:Work
         rdf:about="">
        <dc:format>image/svg+xml</dc:format>
        <dc:type
           rdf:resource="http://purl.org/dc/dcmitype/StillImage" />
        <dc:title></dc:title>
      </cc:Work>
    </rdf:RDF>
  </metadata>
  <g
     transform="translate(8.8685663,-62.622591)"
     id="layer1">
    <g
       id="g3243"
       transform="matrix(0.35277777,0,0,-0.35277777,-204.0795,298.44733)">
      <path
         d="m 553.35384,623.12459 h 39.685 v 39.685 h -39.685 z"
         style="fill:#b00333;fill-opacity:1;fill-rule:nonzero;stroke:none;stroke-width:0.99999994"
         id="path4255" />
      <path
         d="m 564.69284,634.46359 h 34.015 v 34.016 h -34.015 z"
         style="fill:#f7a600;fill-opacity:1;fill-rule:nonzero;stroke:none;stroke-width:0.99999994"
         id="path4257" />
      <path
         d="m 564.69284,634.46259 h 28.345 v 28.346 h -28.345 z"
         style="fill:#de6102;fill-opacity:1;fill-rule:nonzero;stroke:none;stroke-width:0.99999994"
         id="path4259" />
      <path
         id="path4271"
         style="fill:#ffffff;fill-opacity:1;fill-rule:nonzero;stroke:none"
         d="m 588.39954,658.40549 h -1.307 c -0.146,0 -0.264,-0.105 -0.264,-0.251 v -9.292 c 0,-0.146 0.118,-0.264 0.264,-0.264 h 1.307 c 0.145,0 0.264,0.118 0.264,0.264 v 9.292 c 0,0.146 -0.119,0.251 -0.264,0.251 m -4.922,-3.062 c 0,-1.056 -0.554,-1.584 -1.979,-1.584 -0.225,0 -0.964,0.026 -1.175,0.039 v 3.142 c 0.238,0.026 0.898,0.053 1.175,0.053 1.32,0 1.979,-0.423 1.979,-1.531 z m -1.979,3.168 c -0.964,0 -1.901,-0.066 -2.587,-0.172 -0.265,-0.039 -0.423,-0.132 -0.423,-0.396 v -9.081 c 0,-0.146 0.119,-0.264 0.264,-0.264 h 1.32 c 0.145,0 0.251,0.118 0.251,0.264 v 3.445 c 0.303,-0.013 0.831,-0.053 1.175,-0.053 2.033,0 3.801,0.752 3.801,3.089 v 0.119 c 0,2.336 -1.768,3.049 -3.801,3.049 m -5.276,-0.106 h -1.307 c -0.145,0 -0.264,-0.105 -0.264,-0.251 v -3.643 h -3.749 v 3.643 c 0,0.146 -0.119,0.251 -0.264,0.251 h -1.306 c -0.146,0 -0.265,-0.105 -0.265,-0.251 v -9.292 c 0,-0.146 0.119,-0.264 0.265,-0.264 h 1.306 c 0.145,0 0.264,0.118 0.264,0.264 v 4.039 h 3.749 v -4.039 c 0,-0.146 0.119,-0.264 0.264,-0.264 h 1.307 c 0.145,0 0.264,0.118 0.264,0.264 v 9.292 c 0,0.146 -0.119,0.251 -0.264,0.251" />
    </g>
  </g>
</svg>
