<?xml version="1.0" encoding="UTF-8" standalone="no"?>
<svg
   xmlns:dc="http://purl.org/dc/elements/1.1/"
   xmlns:cc="http://creativecommons.org/ns#"
   xmlns:rdf="http://www.w3.org/1999/02/22-rdf-syntax-ns#"
   xmlns:svg="http://www.w3.org/2000/svg"
   xmlns="http://www.w3.org/2000/svg"
   id="svg8"
   version="1.1"
   viewBox="0 0 16.000237 15.999883"
   height="15.999883mm"
   width="16.000237mm">
  <defs
     id="defs2">
    <clipPath
       clipPathUnits="userSpaceOnUse"
       id="clipPath909-8">
      <path
         d="m 482.189,74.457 h 98.645 v 71.433 h -98.645 z"
         id="path907-3" />
    </clipPath>
  </defs>
  <metadata
     id="metadata5">
    <rdf:RDF>
      <cc:Work
         rdf:about="">
        <dc:format>image/svg+xml</dc:format>
        <dc:type
           rdf:resource="http://purl.org/dc/dcmitype/StillImage" />
        <dc:title></dc:title>
      </cc:Work>
    </rdf:RDF>
  </metadata>
  <g
     transform="translate(-29.150347,-246.5042)"
     id="layer1">
    <g
       id="g823"
       transform="matrix(0.35277777,0,0,-0.35277777,-204.0795,298.44733)">
      <path
         id="path913"
         style="fill:#ffffff;fill-opacity:1;fill-rule:nonzero;stroke:none"
         d="m 689.26899,135.75536 c -0.277,0 -0.937,-0.026 -1.175,-0.053 v -3.142 c 0.212,-0.013 0.951,-0.039 1.175,-0.039 1.426,0 1.98,0.528 1.98,1.584 v 0.119 c 0,1.109 -0.66,1.531 -1.98,1.531 m -17.172,5.816 h -10.973 v -39.685 h 39.685 v 10.973 h -28.712 z m 0.783,-27.929 h 33.599 v 33.598 h -33.599 z m 11.377,13.982 c 0,-0.145 -0.119,-0.264 -0.264,-0.264 h -1.307 c -0.145,0 -0.264,0.119 -0.264,0.264 v 4.039 h -3.748 v -4.039 c 0,-0.145 -0.119,-0.264 -0.265,-0.264 h -1.306 c -0.146,0 -0.264,0.119 -0.264,0.264 v 9.293 c 0,0.145 0.118,0.251 0.264,0.251 h 1.306 c 0.146,0 0.265,-0.106 0.265,-0.251 v -3.644 h 3.748 v 3.644 c 0,0.145 0.119,0.251 0.264,0.251 h 1.307 c 0.145,0 0.264,-0.106 0.264,-0.251 z m 8.814,6.481 c 0,-2.336 -1.769,-3.089 -3.802,-3.089 -0.343,0 -0.871,0.04 -1.175,0.053 v -3.445 c 0,-0.145 -0.105,-0.264 -0.251,-0.264 h -1.319 c -0.146,0 -0.265,0.119 -0.265,0.264 v 9.081 c 0,0.264 0.159,0.357 0.423,0.397 0.686,0.105 1.624,0.171 2.587,0.171 2.033,0 3.802,-0.713 3.802,-3.049 z m 3.363,-6.481 c 0,-0.145 -0.119,-0.264 -0.264,-0.264 h -1.307 c -0.145,0 -0.264,0.119 -0.264,0.264 v 9.293 c 0,0.145 0.119,0.251 0.264,0.251 h 1.307 c 0.145,0 0.264,-0.106 0.264,-0.251 z" />
    </g>
  </g>
</svg>
